<mxfile host="app.diagrams.net" modified="2024-06-13T12:22:17.807Z" agent="Mozilla/5.0 (Windows NT 10.0; Win64; x64) AppleWebKit/537.36 (KHTML, like Gecko) Chrome/125.0.0.0 Safari/537.36" version="24.5.3" etag="3Xoge8KInKMFXv9J3Y8P" type="github">
  <diagram name="第 1 页" id="c7_FHKQx7LIaYxryCwgU">
    <mxGraphModel>
      <root>
        <mxCell id="0" />
        <mxCell id="1" parent="0" />
      </root>
    </mxGraphModel>
  </diagram>
</mxfile>
